<svg width="24" height="24" viewBox="0 0 24 24" fill="none" xmlns="http://www.w3.org/2000/svg">
    <path class="main-color" fill-rule="evenodd" clip-rule="evenodd" d="M14.7818 9.87273C14.7818 12.5839 12.5839 14.7818 9.87273 14.7818C7.16151 14.7818 4.96364 12.5839 4.96364 9.87273C4.96364 7.16151 7.16151 4.96364 9.87273 4.96364C12.5839 4.96364 14.7818 7.16151 14.7818 9.87273ZM14.0339 15.343C12.8789 16.223 11.4368 16.7455 9.87273 16.7455C6.07702 16.7455 3 13.6684 3 9.87273C3 6.07702 6.07702 3 9.87273 3C13.6684 3 16.7455 6.07702 16.7455 9.87273C16.7455 11.4368 16.223 12.8789 15.343 14.0339L21 19.6909L19.6909 21L14.0339 15.343Z" fill="black"></path>
</svg>